<svg width="24" height="24" viewBox="0 0 24 24" fill="none" xmlns="http://www.w3.org/2000/svg">
<path d="M17.4995 9.39712V6.58319C17.4995 5.23851 16.5567 4.02656 14.8448 3.17069C13.3349 2.41578 11.3479 2 9.24975 2C7.15138 2 5.1643 2.41578 3.65447 3.17069C1.94272 4.02656 1 5.23851 1 6.58319V10.2497V13.9161V17.5826C1 18.9273 1.94272 20.1392 3.65454 20.9951C5.16436 21.7501 7.15144 22.1658 9.24982 22.1658C10.8483 22.1658 12.3722 21.9273 13.6887 21.475C14.5587 21.9165 15.5421 22.1658 16.5828 22.1658C20.1212 22.1658 23 19.287 23 15.7485C22.9999 12.5213 20.6052 9.84333 17.4995 9.39712ZM2.8335 13.1848C3.08352 13.3538 3.35708 13.5135 3.65454 13.6622C5.16436 14.4171 7.1515 14.8329 9.24982 14.8329C9.5807 14.8329 9.90963 14.8219 10.2355 14.8014C10.1896 15.1105 10.1655 15.4268 10.1655 15.7486C10.1655 16.048 10.1866 16.3427 10.2265 16.6312C9.90431 16.6542 9.57807 16.6658 9.24982 16.6658C5.57745 16.6659 2.8335 15.2141 2.8335 13.9161V13.1848ZM10.8296 12.908C10.3148 12.9685 9.78544 12.9993 9.24975 12.9993C5.57745 12.9994 2.8335 11.5477 2.8335 10.2497V9.51838C3.08352 9.68736 3.35708 9.84706 3.65454 9.9957C5.16436 10.7507 7.1515 11.1664 9.24982 11.1664C10.3788 11.1664 11.4746 11.045 12.4823 10.8162C11.7956 11.388 11.2301 12.1001 10.8296 12.908ZM9.24975 3.8335C12.922 3.8335 15.6659 5.2852 15.6659 6.58319C15.6659 7.88119 12.922 9.33295 9.24975 9.33295C5.57745 9.33295 2.8335 7.88119 2.8335 6.58319C2.8335 5.2852 5.57745 3.8335 9.24975 3.8335ZM2.8335 17.5826V16.8514C3.08352 17.0204 3.35708 17.18 3.65454 17.3287C5.16436 18.0836 7.15144 18.4994 9.24982 18.4994C9.75586 18.4994 10.2584 18.4745 10.7516 18.4264C11.0313 19.033 11.4027 19.5889 11.8482 20.076C11.0313 20.2432 10.1468 20.3323 9.24975 20.3323C5.57745 20.3323 2.8335 18.8806 2.8335 17.5826ZM16.5827 20.3323C14.0552 20.3323 11.999 18.2761 11.999 15.7486C11.999 13.2283 14.0437 11.177 16.5614 11.1654C16.5686 11.1656 16.5755 11.1665 16.5827 11.1665C16.5899 11.1665 16.5968 11.1656 16.604 11.1654C19.1217 11.177 21.1664 13.2283 21.1664 15.7486C21.1664 18.2761 19.1102 20.3323 16.5827 20.3323Z" fill="#AAAAAA" stroke="white" stroke-width="0.2"/>
</svg>
